    <svg
      version="1.1"
      viewBox="0 0 160 156.38"
      xmlns="http://www.w3.org/2000/svg"
      className="w-14 h-14"
    >
      <g transform="translate(-46.045 -64.504)">
        <g
          transform="matrix(1.0098 0 0 1.0098 -268.68 16.999)"
          stroke-width=".99025"
        >
          <path
            d="m372.79 47.041a61.138 61.138 0 0 0-61.137 61.138 61.138 61.138 0 0 0 61.137 61.138 61.138 61.138 0 0 0 61.138-61.138 61.138 61.138 0 0 0-0.0812-3.1048 56.902 56.902 0 0 1-56.821 55.772 56.902 56.902 0 0 1-56.901-56.903 56.902 56.902 0 0 1 55.77-56.821 61.138 61.138 0 0 0-3.1048-0.08117z"
            fill="#714e65"
          />
          <path
            d="m383.88 176.22c-2.6914-5.8947-9.1868-8.1026-8.8444-14.42 0.3423-6.3176 13.746-13.542 12.878-16.644-0.86842-3.1021-17.768-4.9123-20.874-8.6156-3.105-3.7039-0.29247-4.4061-1.4997-5.3321-1.2072-0.92603-15.446 1.9459-20.021 7.2159-4.7139 5.4294-5.63 14.435-5.8062 14.638-0.17619 0.20307-9.104 2.5352-13.678 7.8038-4.4876 5.1689-5.42 19.771-4.3335 20.836 1.0864 1.0652 1.3866-1.818 5.4898 0.73626 4.1027 2.555 8.2677 19.033 11.461 19.458 3.1934 0.42423 8.4642-13.861 14.671-15.087 6.207-1.2259 9.3052 4.8951 15.519 6.7322 6.2141 1.8373 21.23 4.1183 21.663 3.6192 0.43326-0.49905-3.9334-15.046-6.6249-20.94z"
            fill="#17a54e"
          />
          <path
            d="m427.15 85.716c-4.1214 5.0005-3.2626 11.807-9.0926 14.265-5.8298 2.4582-18.193-6.4297-20.602-4.2908-2.4088 2.139 3.3628 18.126 1.393 22.539-1.9707 4.4132-3.8333 2.192-4.1373 3.6828-0.30404 1.4908 8.5118 13.035 15.253 14.841 6.9452 1.861 15.443-1.2584 15.703-1.1888 0.2597 0.0696 6.2652 7.0751 13.005 8.8809 6.6119 1.7717 20.148-3.783 20.63-5.2261 0.48207-1.4431-2.2416-0.4507-1.7416-5.258 0.50086-4.8072 13.493-15.766 12.476-18.823-1.0167-3.0568-16.168-1.5414-19.987-6.5851-3.8197-5.0438 0.32706-10.509-0.74187-16.9-1.0688-6.3912-5.592-20.89-6.2304-21.061-0.63838-0.17106-11.805 10.124-15.926 15.124z"
            fill="#17a54e"
          />
        </g>
      </g>
    </svg>